<svg xmlns="http://www.w3.org/2000/svg" width="160" height="57.107" viewBox="0 0 160 57.107">
    <defs>
        <style>
            .cls-1{fill:#65A300}.cls-2{fill:#1B1C29}.cls-3{fill:#454550}
        </style>
    </defs>
    <g id="logo_pagarme" data-name="logo/pagarme" transform="translate(-180 -37)">
        <path id="hat" d="M1573.507 28.834h9.142c.015-.374.028-.75.028-1.128A27.738 27.738 0 0 0 1555 0v9.132a18.571 18.571 0 0 1 18.543 18.574c.002.375-.013.754-.036 1.128z" class="cls-1" transform="translate(-1242.677 37)"/>
        <path id="pagarme" d="M-11273.433-6184.8a11.688 11.688 0 0 1-2.171-.707 14.324 14.324 0 0 1-1.548-.827 7.446 7.446 0 0 1-1.011-.725l-.3-.3 1.818-2.693.253.256a7.444 7.444 0 0 0 .707.554 8.794 8.794 0 0 0 1.179.725 8.554 8.554 0 0 0 3.585.824 5.477 5.477 0 0 0 3.988-1.227 4.814 4.814 0 0 0 1.23-3.551v-1.446a4.368 4.368 0 0 1-.205.267 6.458 6.458 0 0 1-.639.622 6.246 6.246 0 0 1-1.094.793 6.8 6.8 0 0 1-1.616.6 8.4 8.4 0 0 1-2.176.267 8.528 8.528 0 0 1-6.076-2.222 8.3 8.3 0 0 1-2.372-6.363 8.46 8.46 0 0 1 2.423-6.278 8.125 8.125 0 0 1 5.957-2.406 8.19 8.19 0 0 1 3.264.622 5.7 5.7 0 0 1 1.985 1.23l.54.6v-2.187h3.642v15.283q0 8.582-8.687 8.582h-.036a11.774 11.774 0 0 1-2.64-.293zm-1.418-19.172a5.7 5.7 0 0 0-1.395 3.991 5.564 5.564 0 0 0 1.429 3.955 4.944 4.944 0 0 0 3.787 1.531 5.3 5.3 0 0 0 3.939-1.5 5.432 5.432 0 0 0 1.48-3.988 5.44 5.44 0 0 0-1.515-3.991 5.3 5.3 0 0 0-3.939-1.531 4.881 4.881 0 0 0-3.786 1.536zm-44.149 19.1v-23.5h3.636v2.256c.046-.068.119-.162.219-.287a5.829 5.829 0 0 1 .673-.625 6.661 6.661 0 0 1 1.146-.775 8.2 8.2 0 0 1 1.682-.619 8.358 8.358 0 0 1 2.2-.287 7.86 7.86 0 0 1 5.942 2.409 8.788 8.788 0 0 1 2.307 6.343 8.892 8.892 0 0 1-2.307 6.5 8.116 8.116 0 0 1-6.076 2.357 8.338 8.338 0 0 1-2.153-.27 6.293 6.293 0 0 1-1.65-.656 11.058 11.058 0 0 1-1.11-.759 3.645 3.645 0 0 1-.673-.639l-.2-.27v8.82zm5.017-19.121a5.763 5.763 0 0 0-1.483 4.107 5.655 5.655 0 0 0 1.483 4.139 5.332 5.332 0 0 0 4 1.517 4.733 4.733 0 0 0 3.735-1.565 5.911 5.911 0 0 0 1.381-4.057 5.95 5.95 0 0 0-1.432-4.125 4.846 4.846 0 0 0-3.784-1.6 5.1 5.1 0 0 0-3.9 1.591zm128.1 13q-4.61 0-7.118-2.409a8.727 8.727 0 0 1-2.509-6.613 8.669 8.669 0 0 1 2.56-6.48 8.851 8.851 0 0 1 6.466-2.508 8.578 8.578 0 0 1 6.649 2.625 10.308 10.308 0 0 1 2.406 7.232v.875h-12.729a1.381 1.381 0 0 0 .052.341 3.8 3.8 0 0 0 .32.707 3.6 3.6 0 0 0 .688.909 3.74 3.74 0 0 0 1.278.725 5.723 5.723 0 0 0 2 .318 6.313 6.313 0 0 0 2.46-.488 5.835 5.835 0 0 0 1.716-.992l.5-.505 2.764 3.229c-.067.088-.164.2-.286.338a7.193 7.193 0 0 1-.875.724 9.977 9.977 0 0 1-1.483.926 9.734 9.734 0 0 1-2.1.724 11.7 11.7 0 0 1-2.723.321zm-2.224-13.468a2.841 2.841 0 0 0-1.077.741 5.183 5.183 0 0 0-.607.875 2.154 2.154 0 0 0-.268.742l-.068.3h7.307c-.022-.083-.043-.2-.065-.318a3.738 3.738 0 0 0-.287-.708 3.612 3.612 0 0 0-.622-.909 3.5 3.5 0 0 0-1.079-.707 3.849 3.849 0 0 0-1.616-.318h-.083a4.042 4.042 0 0 0-1.534.305zm-41.35 12.576a3 3 0 0 1-.909-2.153 3.005 3.005 0 0 1 .909-2.156 3.087 3.087 0 0 1 2.222-.875 3.105 3.105 0 0 1 2.224.875 3.01 3.01 0 0 1 .906 2.156 3.009 3.009 0 0 1-.906 2.153 3.251 3.251 0 0 1-2.223.875 3.252 3.252 0 0 1-2.222-.872zm-22.22.818a8.462 8.462 0 0 1-6.076-2.255 8.479 8.479 0 0 1-2.369-6.462 8.643 8.643 0 0 1 2.423-6.395 8.093 8.093 0 0 1 5.957-2.423 8.19 8.19 0 0 1 3.264.622 5.764 5.764 0 0 1 1.986 1.227l.539.608v-2.156h3.634v16.968h-3.637v-2.324c-.045.068-.11.162-.2.284a4.9 4.9 0 0 1-.64.625 6.8 6.8 0 0 1-1.094.773 7.247 7.247 0 0 1-1.616.622 7.9 7.9 0 0 1-2.111.287zm-3.415-12.857a5.842 5.842 0 0 0-1.4 4.071 5.837 5.837 0 0 0 1.432 4.074 4.855 4.855 0 0 0 3.787 1.582 5.235 5.235 0 0 0 3.954-1.514 5.7 5.7 0 0 0 1.466-4.142 5.568 5.568 0 0 0-1.517-4.071 5.255 5.255 0 0 0-3.937-1.548 4.842 4.842 0 0 0-3.784 1.551zm-36.1 12.857a8.444 8.444 0 0 1-6.074-2.255 8.493 8.493 0 0 1-2.374-6.462 8.643 8.643 0 0 1 2.423-6.395 8.1 8.1 0 0 1 5.957-2.423 8.194 8.194 0 0 1 3.267.622 5.807 5.807 0 0 1 1.985 1.227l.537.608v-2.156h3.636v16.968h-3.636v-2.324a8.187 8.187 0 0 1-.2.284 4.912 4.912 0 0 1-.639.625 6.8 6.8 0 0 1-1.094.773 7.3 7.3 0 0 1-1.616.622 7.91 7.91 0 0 1-2.112.287zm-3.418-12.857a5.827 5.827 0 0 0-1.395 4.071 5.836 5.836 0 0 0 1.429 4.074 4.85 4.85 0 0 0 3.787 1.582 5.241 5.241 0 0 0 3.954-1.514 5.688 5.688 0 0 0 1.463-4.142 5.563 5.563 0 0 0-1.515-4.071 5.252 5.252 0 0 0-3.937-1.548 4.841 4.841 0 0 0-3.786 1.551zm92.74 12.59v-10.6q0-2.659-1.954-2.659-2.424 0-2.423 3.534v9.729h-5.116v-10.6q0-2.659-1.952-2.659-2.424 0-2.423 3.534v9.729h-5.116v-17.3h5.116v2.255c.046-.068.1-.156.171-.27a5.251 5.251 0 0 1 .488-.6 5.034 5.034 0 0 1 .857-.772 4.846 4.846 0 0 1 1.275-.608 5.327 5.327 0 0 1 1.716-.267 5.5 5.5 0 0 1 1.719.253 4.052 4.052 0 0 1 1.228.608 5.866 5.866 0 0 1 .759.69 3.02 3.02 0 0 1 .438.605l.1.235c.043-.068.105-.15.185-.255a7.117 7.117 0 0 1 .555-.571 6.056 6.056 0 0 1 .942-.741 5.4 5.4 0 0 1 1.347-.571 5.984 5.984 0 0 1 1.75-.256q5.454 0 5.454 6.295v11.278zm-37.585 0v-17h3.636v3.063a2 2 0 0 1 .15-.37 8.474 8.474 0 0 1 .54-.841 5.3 5.3 0 0 1 .94-1.042 5.137 5.137 0 0 1 1.466-.792 4.838 4.838 0 0 1 2.02-.284l-.3 3.938a4.165 4.165 0 0 0-3.534 1.094 4.808 4.808 0 0 0-1.275 3.551v8.684z" class="cls-2" transform="translate(11499 6264.495)"/>
        <path id="Path_5415" d="M-63.247-7.82v5.226a2.54 2.54 0 0 1-.8 1.974 3.03 3.03 0 0 1-2.124.728A3.051 3.051 0 0 1-68.3-.61a2.552 2.552 0 0 1-.79-1.99v-5.22h1.354v5.231a1.662 1.662 0 0 0 .4 1.2 1.551 1.551 0 0 0 1.171.414q1.568 0 1.568-1.654V-7.82zm3.476 0l2.256 5.994 2.25-5.994h1.756V0h-1.354v-2.578l.134-3.448L-57.038 0h-.972l-2.3-6.021.134 3.443V0h-1.354v-7.82zm12.51 6h-3.029L-50.924 0h-1.413l2.954-7.82h1.219L-45.2 0h-1.418zm-2.648-1.1h2.267l-1.133-3.244zm13.429-.575h-3.212v2.406h3.754V0h-5.113v-7.82h5.076v1.1h-3.717v2.159h3.212zm3.675-4.329l2.256 5.994 2.249-5.99h1.756V0H-27.9v-2.578l.134-3.448L-30.071 0h-.972l-2.3-6.021.134 3.443V0h-1.354v-7.82zm9.492 4.915V0h-1.359v-7.82h2.992a3.027 3.027 0 0 1 2.081.682 2.292 2.292 0 0 1 .771 1.8 2.216 2.216 0 0 1-.755 1.789 3.174 3.174 0 0 1-2.114.639zm0-1.09h1.633a1.608 1.608 0 0 0 1.106-.341 1.253 1.253 0 0 0 .381-.986 1.352 1.352 0 0 0-.387-1.012 1.491 1.491 0 0 0-1.063-.389h-1.67zm8.809.983h-1.515V0h-1.359v-7.82h2.75a3.2 3.2 0 0 1 2.089.607 2.146 2.146 0 0 1 .739 1.756 2.2 2.2 0 0 1-.379 1.313 2.409 2.409 0 0 1-1.055.814l1.754 3.26V0h-1.456zM-16.019-4.1h1.4a1.553 1.553 0 0 0 1.074-.346 1.208 1.208 0 0 0 .387-.948 1.286 1.286 0 0 0-.357-.972 1.517 1.517 0 0 0-1.066-.354h-1.434zm10.34.612h-3.212v2.406h3.754V0h-5.113v-7.82h5.076v1.1h-3.717v2.159h3.212zm6 1.477a.944.944 0 0 0-.363-.795A4.362 4.362 0 0 0-1.35-3.37a6.316 6.316 0 0 1-1.5-.634 2.007 2.007 0 0 1-1.072-1.754 1.906 1.906 0 0 1 .771-1.558 3.12 3.12 0 0 1 2-.612 3.379 3.379 0 0 1 1.456.3 2.389 2.389 0 0 1 1 .857 2.2 2.2 0 0 1 .365 1.233H.321A1.225 1.225 0 0 0-.063-6.5a1.585 1.585 0 0 0-1.1-.346 1.655 1.655 0 0 0-1.034.285.948.948 0 0 0-.368.795.857.857 0 0 0 .4.717 4.579 4.579 0 0 0 1.311.559 6.028 6.028 0 0 1 1.465.62 2.332 2.332 0 0 1 .811.795 2.07 2.07 0 0 1 .258 1.05A1.861 1.861 0 0 1 .931-.47 3.25 3.25 0 0 1-1.1.107a3.82 3.82 0 0 1-1.56-.314 2.621 2.621 0 0 1-1.106-.867 2.162 2.162 0 0 1-.395-1.289H-2.8a1.265 1.265 0 0 0 .44 1.031 1.929 1.929 0 0 0 1.26.365 1.676 1.676 0 0 0 1.064-.287.927.927 0 0 0 .357-.76zm7.193.193H4.485L3.851 0H2.438l2.955-7.82h1.219L9.571 0H8.153zm-2.648-1.1h2.267L6-6.161zm12.946.9a.944.944 0 0 0-.363-.795 4.362 4.362 0 0 0-1.308-.564 6.316 6.316 0 0 1-1.5-.634 2.007 2.007 0 0 1-1.069-1.751 1.906 1.906 0 0 1 .771-1.558 3.12 3.12 0 0 1 2-.612 3.379 3.379 0 0 1 1.456.3 2.389 2.389 0 0 1 1 .857 2.2 2.2 0 0 1 .365 1.233h-1.352a1.225 1.225 0 0 0-.384-.959 1.585 1.585 0 0 0-1.1-.346 1.655 1.655 0 0 0-1.034.285.948.948 0 0 0-.368.795.857.857 0 0 0 .4.717 4.579 4.579 0 0 0 1.311.559 6.028 6.028 0 0 1 1.463.621 2.332 2.332 0 0 1 .811.795 2.07 2.07 0 0 1 .258 1.05 1.861 1.861 0 0 1-.747 1.555 3.25 3.25 0 0 1-2.033.577 3.82 3.82 0 0 1-1.56-.314 2.621 2.621 0 0 1-1.106-.867 2.162 2.162 0 0 1-.395-1.289h1.359a1.265 1.265 0 0 0 .44 1.031 1.929 1.929 0 0 0 1.262.365 1.676 1.676 0 0 0 1.066-.287.927.927 0 0 0 .357-.76zm8.466-4.71h-2.439V0h-1.348v-6.725h-2.417v-1.1h6.2zm7.381 3.019a4.8 4.8 0 0 1-.4 2.017 3.005 3.005 0 0 1-1.134 1.335 3.125 3.125 0 0 1-1.7.465 3.132 3.132 0 0 1-1.695-.465 3.051 3.051 0 0 1-1.149-1.324 4.648 4.648 0 0 1-.411-1.982V-4.1a4.757 4.757 0 0 1 .406-2.02 3.048 3.048 0 0 1 1.144-1.34 3.115 3.115 0 0 1 1.695-.465 3.142 3.142 0 0 1 1.695.459 3.009 3.009 0 0 1 1.14 1.319 4.747 4.747 0 0 1 .408 2.006zM32.3-4.114a3.419 3.419 0 0 0-.491-1.993 1.608 1.608 0 0 0-1.395-.693 1.6 1.6 0 0 0-1.378.69 3.353 3.353 0 0 0-.508 1.952v.451a3.393 3.393 0 0 0 .5 1.993 1.617 1.617 0 0 0 1.394.7 1.6 1.6 0 0 0 1.392-.686 3.466 3.466 0 0 0 .486-2.006zM41.48 0h-1.359l-3.486-5.548V0h-1.359v-7.82h1.359l3.5 5.57v-5.57h1.345zm6.44-3.491h-3.211v2.406h3.754V0H43.35v-7.82h5.076v1.1h-3.717v2.159h3.211zm10.88.945a2.824 2.824 0 0 1-.92 1.952 3.149 3.149 0 0 1-2.143.7 3.05 3.05 0 0 1-1.646-.443 2.909 2.909 0 0 1-1.1-1.26 4.545 4.545 0 0 1-.4-1.9v-.73a4.578 4.578 0 0 1 .392-1.95 2.955 2.955 0 0 1 1.125-1.3 3.139 3.139 0 0 1 1.692-.451 3.016 3.016 0 0 1 2.084.7 2.939 2.939 0 0 1 .916 1.991h-1.35a1.932 1.932 0 0 0-.491-1.217 1.624 1.624 0 0 0-1.159-.373 1.587 1.587 0 0 0-1.362.647 3.232 3.232 0 0 0-.486 1.9v.693a3.429 3.429 0 0 0 .454 1.934 1.507 1.507 0 0 0 1.329.666 1.757 1.757 0 0 0 1.2-.36 1.876 1.876 0 0 0 .51-1.2zm7.719-1.16a4.8 4.8 0 0 1-.4 2.017A3.005 3.005 0 0 1 64.99-.357a3.125 3.125 0 0 1-1.7.465 3.132 3.132 0 0 1-1.69-.465 3.051 3.051 0 0 1-1.149-1.324 4.648 4.648 0 0 1-.411-1.982V-4.1a4.757 4.757 0 0 1 .406-2.02 3.048 3.048 0 0 1 1.144-1.34 3.115 3.115 0 0 1 1.695-.465 3.142 3.142 0 0 1 1.695.459 3.009 3.009 0 0 1 1.141 1.321 4.747 4.747 0 0 1 .408 2.006zm-1.359-.408a3.419 3.419 0 0 0-.491-1.993 1.608 1.608 0 0 0-1.39-.693 1.6 1.6 0 0 0-1.378.69 3.353 3.353 0 0 0-.508 1.952v.451a3.393 3.393 0 0 0 .5 1.993 1.617 1.617 0 0 0 1.394.7 1.6 1.6 0 0 0 1.391-.686 3.466 3.466 0 0 0 .486-2.009zm3.009 2.739a.746.746 0 0 1 .564.207.718.718 0 0 1 .2.518.693.693 0 0 1-.2.508.757.757 0 0 1-.564.2.759.759 0 0 1-.553-.2.681.681 0 0 1-.2-.51.718.718 0 0 1 .2-.518.738.738 0 0 1 .557-.205z" class="cls-3" data-name="Path 5415" transform="translate(250 94)"/>
    </g>
</svg>
